<?xml version="1.0" standalone="no"?>
<svg xmlns="http://www.w3.org/2000/svg" viewBox="0 0 62.714 36" width="62.714" height="36"><g fill="#ffffff" color="#ffffff" transform="translate(0 6) scale(0.4705883)"><svg width="44.0" height="51.0" x="0.0" y="0.0" viewBox="0 0 44 51"><path fill="currentColor" fill-rule="evenodd" d="M21.998 0L0 12.571v25.143l4.19 2.395V15.002L21.999 4.827 39.81 15.002v20.28L21.998 45.459l-9.427-5.388V19.865l9.427-5.386 9.43 5.386v10.553l-9.43 5.387-1.045-.597V24.73l5.268-3.012-4.223-2.413-5.236 2.994v15.34l5.236 2.993 13.62-7.784V17.435l-13.62-7.781-13.617 7.78v25.068l13.617 7.784L44 37.714V12.571z"></path></svg></g><path fill="#fcfcfc" fill-rule="nonzero" d="M4.42 21Q2.18 21 1.09 19.43Q0 17.86 0 14.66L0 14.66L0 5.78Q0 2.93 1.27 1.46Q2.54 0 5.06 0L5.06 0Q7.10 0 8.23 0.82Q9.36 1.63 9.79 3.19Q10.22 4.75 10.22 7.20L10.22 7.20L6.19 7.20L6.19 5.35Q6.19 4.61 5.99 4.20Q5.78 3.79 5.26 3.79L5.26 3.79Q4.08 3.79 4.08 5.33L4.08 5.33L4.08 15.31Q4.08 16.25 4.32 16.73Q4.56 17.21 5.16 17.21L5.16 17.21Q5.76 17.21 6 16.73Q6.24 16.25 6.24 15.31L6.24 15.31L6.24 12.36L5.14 12.36L5.14 8.81L10.18 8.81L10.18 20.81L8.52 20.81L7.82 19.08Q6.72 21 4.42 21L4.42 21ZM16.56 21.05Q13.85 21.05 12.60 19.62Q11.35 18.19 11.35 15.26L11.35 15.26L11.35 13.10L15.58 13.10L15.58 15.26Q15.58 16.20 15.82 16.72Q16.06 17.23 16.78 17.23L16.78 17.23Q17.28 17.23 17.51 16.87Q17.74 16.51 17.78 16.02Q17.83 15.53 17.83 14.59L17.83 14.59L17.83 14.09Q17.83 11.42 16.08 11.42L16.08 11.42Q15.77 11.42 15.67 11.45L15.67 11.45L15.67 7.75Q16.78 7.75 17.33 7.26Q17.88 6.77 17.88 5.69L17.88 5.69Q17.88 3.94 16.87 3.94L16.87 3.94Q16.25 3.94 16.07 4.25Q15.89 4.56 15.83 5.04Q15.77 5.52 15.74 5.74L15.74 5.74L15.74 6.36L11.47 6.36L11.45 5.64Q11.47 2.81 12.79 1.48Q14.11 0.14 16.85 0.14L16.85 0.14Q22.10 0.14 22.10 5.64L22.10 5.64Q22.10 7.25 21.67 8.20Q21.24 9.14 20.18 9.53L20.18 9.53Q21.05 9.96 21.47 10.60Q21.89 11.23 22.02 12.14Q22.15 13.06 22.15 14.59L22.15 14.59Q22.15 17.78 20.82 19.42Q19.49 21.05 16.56 21.05L16.56 21.05ZM28.42 21.05Q25.70 21.05 24.46 19.62Q23.21 18.19 23.21 15.26L23.21 15.26L23.21 13.10L27.43 13.10L27.43 15.26Q27.43 16.20 27.67 16.72Q27.91 17.23 28.63 17.23L28.63 17.23Q29.14 17.23 29.36 16.87Q29.59 16.51 29.64 16.02Q29.69 15.53 29.69 14.59L29.69 14.59L29.69 14.09Q29.69 11.42 27.94 11.42L27.94 11.42Q27.62 11.42 27.53 11.45L27.53 11.45L27.53 7.75Q28.63 7.75 29.18 7.26Q29.74 6.77 29.74 5.69L29.74 5.69Q29.74 3.94 28.73 3.94L28.73 3.94Q28.10 3.94 27.92 4.25Q27.74 4.56 27.68 5.04Q27.62 5.52 27.60 5.74L27.60 5.74L27.60 6.36L23.33 6.36L23.30 5.64Q23.33 2.81 24.65 1.48Q25.97 0.14 28.70 0.14L28.70 0.14Q33.96 0.14 33.96 5.64L33.96 5.64Q33.96 7.25 33.53 8.20Q33.10 9.14 32.04 9.53L32.04 9.53Q32.90 9.96 33.32 10.60Q33.74 11.23 33.88 12.14Q34.01 13.06 34.01 14.59L34.01 14.59Q34.01 17.78 32.68 19.42Q31.34 21.05 28.42 21.05L28.42 21.05Z" transform="translate(28.706, 7.477)"></path></svg>